<svg xmlns="http://www.w3.org/2000/svg" data-name="Layer 1" viewBox="0 0 512 512"><circle cx="256" cy="256" r="248.5" fill="#4956fc"/><circle cx="256" cy="256" r="198.5" fill="#5e8df7"/><polygon fill="#fefefe" points="349.4 244.12 333.86 252.94 254.85 282.76 162.6 244.12 254.85 86.04 349.4 244.12"/><polygon fill="#c0cbf8" points="349.4 244.12 254.85 297.76 162.6 244.12 254.85 201.05 349.4 244.12"/><polygon fill="#fefefe" points="349.4 281.84 254.85 425.96 162.6 281.84 254.85 335.47 349.4 281.84"/><polygon fill="#c0cbf8" points="349.4 281.84 254.85 425.96 254.85 335.47 349.4 281.84"/><polygon fill="#c0cbf8" points="349.4 244.12 333.86 252.94 254.85 207.76 254.85 86.04 349.4 244.12"/><polygon fill="#8095f0" points="349.4 244.12 254.85 297.76 254.85 201.05 349.4 244.12"/></svg>