<svg xmlns="http://www.w3.org/2000/svg" width="24" height="24" viewBox="0 0 24 24">
  <g id="icon_salary_british_pound" transform="translate(-1108 -519)">
    <circle id="bg_circle" cx="12" cy="12" r="12" transform="translate(1108 519)" fill="#1c2d41"/>
    <path id="icon_british_pound" d="M1.215,13.987C.894,13.275.223,11.8.223,11.8s.911-.865,1.269-1.31a2.887,2.887,0,0,0,.587-2.069c-.016-.286-.016-.287-.016-.287L0,8.124V6.249H1.758l-.125-.315a5.126,5.126,0,0,1-.4-2.207A3.362,3.362,0,0,1,2.515,1.1,4.582,4.582,0,0,1,7.892.675,4,4,0,0,1,9.725,3.662l-2.2.239A2.635,2.635,0,0,0,6.53,2.2a2.273,2.273,0,0,0-2.654.46,1.827,1.827,0,0,0-.412,1.137,5.234,5.234,0,0,0,.284,1.843c.026.077.21.535.245.609H6.978V8.133H4.534a4.052,4.052,0,0,1-.747,2.6c-.172.257-.351.509-.533.775A4.185,4.185,0,0,1,5.885,11.5a3.821,3.821,0,0,0,3.19-.1c.042-.022.086-.042.151-.075l.992,2.193c-.245.067-.471.136-.7.192a7.353,7.353,0,0,1-2.306.279,9.949,9.949,0,0,1-1.02-.177c-.288-.053-.577-.1-.864-.162-.561-.114-1.116-.255-1.681-.343a2.981,2.981,0,0,0-2.363.635c-.018.014-.038.027-.069.049" transform="translate(1114.891 524)" fill="#fff"/>
  </g>
</svg>
