<svg xmlns="http://www.w3.org/2000/svg" width="24" height="24" viewBox="0 0 24 24">
  <g id="icon_salary_bulgarian_leva" transform="translate(-1108 -519)">
    <circle id="bg_circle" cx="12" cy="12" r="12" transform="translate(1108 519)" fill="#1c2d41"/>
    <g id="icon_bulgarian_leva" transform="translate(41.56 36.907)">
      <path id="в" d="M113.45,2.115a1.023,1.023,0,0,1,.111-.013c1.341.009,1.81,0,3.151.025a2.649,2.649,0,0,1,.808.136,1.862,1.862,0,0,1,1.33,1.557,1.86,1.86,0,0,1-.925,1.932c-.032.021-.065.038-.12.07.068.032.117.058.168.078a1.961,1.961,0,0,1,1.21,2.467,2.094,2.094,0,0,1-2,1.633c-1.186.052-1.5.051-2.69.066-.343,0-.686,0-1.04,0Zm1.619,6.6c.674,0,.452,0,1.1-.011a3.927,3.927,0,0,0,.629-.047.935.935,0,0,0,.794-1.048.912.912,0,0,0-.855-.936c-.826-.05-.782-.05-1.609-.074a.165.165,0,0,0-.061.023Zm0-3.465c.724,0,.552-.007,1.254-.011a1.2,1.2,0,0,0,.283-.045.848.848,0,0,0,.691-.956.808.808,0,0,0-.8-.788,2.71,2.71,0,0,0-.286-.02c-.631,0-.391,0-1.023,0a1.033,1.033,0,0,0-.114.013Z" transform="translate(966.167 488)" fill="#fff"/>
      <path id="л" d="M94.12,2.132v7.941h-1.7V3.483H90.376v.23c0,1.357,0,2.713-.014,4.07A7.325,7.325,0,0,1,90.248,9a1.316,1.316,0,0,1-1.283,1.107,6.918,6.918,0,0,1-.768.02c-.248,0-.5-.027-.757-.043V8.855c.265-.015.521-.017.774-.048.323-.039.442-.132.464-.435.035-.476.032-.954.033-1.432q0-2.284,0-4.568V2.132Z" transform="translate(984 487.974)" fill="#fff"/>
    </g>
  </g>
</svg>
