<?xml version="1.0" encoding="UTF-8" standalone="no"?>
<svg
   width="24"
   height="24"
   viewBox="0 0 24 24"
   version="1.1"
   id="svg5"
   sodipodi:docname="icon_usd.svg"
   inkscape:version="1.1.2 (0a00cf5339, 2022-02-04)"
   xmlns:inkscape="http://www.inkscape.org/namespaces/inkscape"
   xmlns:sodipodi="http://sodipodi.sourceforge.net/DTD/sodipodi-0.dtd"
   xmlns="http://www.w3.org/2000/svg"
   xmlns:svg="http://www.w3.org/2000/svg">
  <defs
     id="defs9" />
  <sodipodi:namedview
     id="namedview7"
     pagecolor="#ffffff"
     bordercolor="#666666"
     borderopacity="1.0"
     inkscape:pageshadow="2"
     inkscape:pageopacity="0.0"
     inkscape:pagecheckerboard="0"
     showgrid="false"
     inkscape:zoom="18.186106"
     inkscape:cx="4.5914172"
     inkscape:cy="6.873379"
     inkscape:window-width="1920"
     inkscape:window-height="1028"
     inkscape:window-x="0"
     inkscape:window-y="0"
     inkscape:window-maximized="1"
     inkscape:current-layer="svg5" />
  <g
     id="g4188">
    <circle
       id="bg_circle"
       cx="12"
       cy="12"
       r="12"
       fill="#1c2d41" />
    <path
       d="m 14.960749,11.897749 c -1.310887,-0.795755 -3.011274,-0.304294 -4.158599,-1.175316 -0.350452,-0.266055 -0.704215,-0.68736 -0.68718,-1.1270329 0.01513,-0.3905044 0.350731,-0.749907 0.685956,-0.9507727 0.522358,-0.3129955 1.216478,-0.3777416 1.810519,-0.2438019 0.49501,0.1116109 0.895401,0.4113424 1.275535,0.8309241 0.191364,0.128622 0.47218,-0.033301 0.689611,-0.1035309 L 16.091133,8.6390244 C 16.313868,8.4225634 15.746932,7.5493703 15.350004,7.1715366 14.699236,6.5520744 13.872161,6.079581 12.887107,6.076444 l 10e-7,-1.4473226 c 0,-0.276066 -0.06458,-0.3580018 -0.340634,-0.355447 l -1.257339,0.011636 c -0.276055,0.00255 -0.316637,0.075484 -0.33111,0.3511702 l -0.07867,1.4203322 h -0.07843 c -1.8192964,0 -3.2706063,1.9617175 -3.1645689,3.6233416 0.055877,0.8756036 0.5380051,2.0081016 1.2959037,2.6207426 1.0971752,0.886893 2.8195142,0.631104 4.1028872,1.039074 0.472627,0.150243 0.789732,0.808822 0.723096,1.300256 -0.06225,0.459088 -0.546132,0.814643 -0.97457,0.99093 -0.585139,0.240763 -1.292113,0.157487 -1.898046,-0.02472 C 10.53778,15.501838 10.282622,15.23064 9.9689059,15.017316 9.7775396,14.888695 9.6100916,14.974346 9.0318516,15.160051 l -1.246301,0.400786 c -0.222736,0.216461 0.3235433,1.09535 0.714055,1.479033 0.6419582,0.630734 1.4666273,1.127624 2.4516934,1.130761 l 0.0027,1.48345 c 5.02e-4,0.276065 0.159495,0.315251 0.435561,0.315251 h 1.080627 c 0.276066,0 0.416892,-0.006 0.416892,-0.282062 v -1.51209 c 1.461895,-0.02823 2.661194,-1.074588 3.09178,-2.280682 0.46224,-1.294757 0.216051,-3.247586 -1.01811,-3.996749 z"
       id="path10523"
       style="fill:#ffffff;stroke:#ffffff;stroke-width:0.0313713"
       sodipodi:nodetypes="saaaacscacsssscssasaaacccacsssscas" />
  </g>
</svg>
