<svg xmlns="http://www.w3.org/2000/svg" width="24" height="24" viewBox="0 0 24 24">
  <g id="icon_salary_euro" transform="translate(-1108 -519)">
    <circle id="bg_circle" cx="12" cy="12" r="12" transform="translate(1108 519)" fill="#1c2d41"/>
    <path id="icon_euro" d="M10.85,10.225l1.641.913A5.75,5.75,0,0,1,7.452,14,6.516,6.516,0,0,1,1,9.028H0V7.811H.811A5.737,5.737,0,0,1,.753,7a6.1,6.1,0,0,1,.058-.852H0V4.929H1.023A6.5,6.5,0,0,1,7.452,0,5.726,5.726,0,0,1,12.491,2.86l-1.641.913A4.032,4.032,0,0,0,7.452,1.8,4.521,4.521,0,0,0,3.108,4.929H8.63V6.147H2.8A6.1,6.1,0,0,0,2.742,7a5.737,5.737,0,0,0,.058.812H8.63V9.028H3.089a4.539,4.539,0,0,0,4.363,3.165,4.032,4.032,0,0,0,3.4-1.968" transform="translate(1113.073 524.001)" fill="#fff"/>
  </g>
</svg>
