<?xml version="1.0" encoding="utf-8"?>
<!-- Generator: Adobe Illustrator 24.3.0, SVG Export Plug-In . SVG Version: 6.00 Build 0)  -->
<svg version="1.0" id="Ebene_1" xmlns="http://www.w3.org/2000/svg" xmlns:xlink="http://www.w3.org/1999/xlink" x="0px" y="0px"
	 viewBox="0 0 310.2 310.1" style="enable-background:new 0 0 310.2 310.1;" xml:space="preserve">
<style type="text/css">
	.st0{fill:#3333EF;}
</style>
<path class="st0" d="M262.8,138.6c-3.5-11.5-10.6-21.5-20.2-28.7c15-42-7-88.3-49-103.2C155.8-6.8,113.8,9.5,95.1,45l-43.7,83.1
	c-13,24.8-6.2,55.4,16.2,72.3c-14.9,42.1,7.1,88.2,49.2,103.1c37.7,13.4,79.5-2.9,98.3-38.2l43.8-83.1
	C265.9,168.8,267.3,153.1,262.8,138.6z M69,137.4l43.8-83c15.8-29.6,52.7-40.8,82.3-24.9c28.8,15.4,40.3,50.8,26,80.2l-65.5,124.3
	c-0.8,1.6-2,3-3.3,4.1l0,0c-0.3,0.3-0.6,0.5-1,0.7l-0.4,0.2l-0.6,0.4l-0.5,0.3l-0.2,0.1c-1.9,0.9-4,1.4-6.1,1.4l0,0
	c-2.2,0-4.3-0.6-6.2-1.6c-6.6-3.5-9.2-11.5-5.9-18.1l64.7-122.9l0.1-0.1c8.6-16.4,2.2-36.7-14.2-45.3c-6.9-3.6-14.8-4.7-22.4-3.1
	c-0.2,0-0.4,0.1-0.6,0.2s-0.7,0.2-1.1,0.3s-0.8,0.2-1.3,0.4l-0.2,0.1c-8.5,2.6-15.6,8.5-19.7,16.4L76.3,181.8
	C64.2,170.3,61.2,152.2,69,137.4z M241.1,172.9L197.3,256c-15.6,29.7-52.3,41.2-82.1,25.6C86,266.3,74.3,230.4,89,200.8l65.5-124.3
	c1-2,2.6-3.7,4.5-5l0,0c0.3-0.2,0.7-0.4,1-0.6l0.2-0.1c0.3-0.2,0.6-0.3,1-0.5l0.6-0.2l0.4-0.1c1.4-0.5,2.9-0.7,4.4-0.7l0,0
	c2.2,0,4.4,0.5,6.3,1.6c6.5,3.5,9.1,11.5,5.8,18.1c-1.9,3.6-64.5,122.5-64.8,123.1c-8.6,16.5-2.2,36.8,14.3,45.3
	c9.6,5,21.1,5.1,30.8,0.1l0.2-0.1c1.3-0.6,2.5-1.4,3.6-2.2l0.3-0.2c0.4-0.3,0.9-0.7,1.3-1l0.4-0.3c0.5-0.4,1-0.8,1.5-1.3
	c0.2-0.2,0.4-0.4,0.6-0.6l0.8-0.8l0.8-0.9l0.3-0.4c1.8-2,3.3-4.2,4.6-6.6c0.4-0.8,19.9-37.8,37.8-71.8l22.6-42.8
	C245.8,140,248.8,158.1,241.1,172.9L241.1,172.9z"/>
</svg>
