<?xml version="1.0" encoding="UTF-8" standalone="no"?>
<svg
   width="24"
   height="24"
   viewBox="0 0 24 24"
   version="1.1"
   id="svg5"
   sodipodi:docname="icon_isp.svg"
   inkscape:version="1.1.2 (0a00cf5339, 2022-02-04)"
   xmlns:inkscape="http://www.inkscape.org/namespaces/inkscape"
   xmlns:sodipodi="http://sodipodi.sourceforge.net/DTD/sodipodi-0.dtd"
   xmlns="http://www.w3.org/2000/svg"
   xmlns:svg="http://www.w3.org/2000/svg">
  <defs
     id="defs9" />
  <sodipodi:namedview
     id="namedview7"
     pagecolor="#ffffff"
     bordercolor="#666666"
     borderopacity="1.0"
     inkscape:pageshadow="2"
     inkscape:pageopacity="0.0"
     inkscape:pagecheckerboard="0"
     showgrid="false"
     inkscape:zoom="16.614534"
     inkscape:cx="7.8244748"
     inkscape:cy="8.9680519"
     inkscape:window-width="1920"
     inkscape:window-height="1028"
     inkscape:window-x="0"
     inkscape:window-y="0"
     inkscape:window-maximized="1"
     inkscape:current-layer="svg5" />
  <circle
     id="bg_circle"
     cx="12"
     cy="12"
     r="12"
     fill="#1c2d41"
     style="fill:#ffffff;fill-opacity:1" />
  <style
     type="text/css"
     id="style8">
	.st0{fill:#FFFFFF;}
</style>
  <path
     class="st0"
     d="M 17.298652,11.285944 C 17.119361,10.696844 16.755655,10.184583 16.263884,9.8157552 17.032276,7.6642588 15.905301,5.2924908 13.753806,4.5292219 11.817459,3.8376696 9.665963,4.672655 8.708035,6.4911816 L 6.469454,10.74807 c -0.665938,1.270407 -0.317601,2.837926 0.829863,3.703647 -0.763269,2.156619 0.363706,4.518142 2.520324,5.281411 1.931224,0.686429 4.072476,-0.148557 5.035526,-1.956837 l 2.243703,-4.256888 c 0.358583,-0.68643 0.430299,-1.49068 0.199782,-2.233459 z M 7.371034,11.224474 9.614737,6.9727077 C 10.42411,5.4564122 12.314352,4.88268 13.830645,5.6971749 c 1.475311,0.7888819 2.064411,2.6022855 1.331879,4.1083326 l -3.35531,6.3674045 c -0.04098,0.08196 -0.102453,0.153678 -0.169047,0.210027 v 0 c -0.01537,0.01537 -0.03073,0.02561 -0.05123,0.03586 l -0.02049,0.01024 -0.03073,0.02049 -0.02561,0.01537 -0.01024,0.0051 c -0.09733,0.04611 -0.204904,0.07171 -0.312479,0.07171 v 0 c -0.112698,0 -0.220273,-0.03073 -0.317602,-0.08196 -0.338092,-0.179291 -0.47128,-0.5891 -0.302234,-0.927193 l 3.314328,-6.2956864 0.0051,-0.00512 C 14.327534,8.3916697 13.999687,7.3517802 13.159579,6.9112352 12.806119,6.7268214 12.401433,6.6704726 12.012115,6.7524341 c -0.01024,0 -0.02049,0.00512 -0.03073,0.010247 -0.01025,0.00512 -0.03586,0.010248 -0.05635,0.015371 -0.02049,0.00512 -0.04098,0.010247 -0.06659,0.020487 l -0.01024,0.00512 c -0.435421,0.1331884 -0.799127,0.4354221 -1.009154,0.840108 L 7.744999,13.498909 C 7.125163,12.909808 6.971485,11.982616 7.371048,11.22447 Z m 8.816012,1.818527 -2.243703,4.256888 C 13.144215,18.821302 11.264217,19.410401 9.73768,18.611274 8.241878,17.827515 7.642532,15.988498 8.395556,14.472205 l 3.355309,-6.3674013 c 0.05123,-0.1024522 0.133189,-0.1895366 0.230518,-0.2561305 v 0 c 0.01537,-0.010247 0.03586,-0.020487 0.05123,-0.030734 l 0.01024,-0.00512 c 0.01537,-0.010248 0.03073,-0.015371 0.05123,-0.025611 l 0.03073,-0.010248 0.02049,-0.00512 c 0.07172,-0.025611 0.148556,-0.035857 0.225395,-0.035857 v 0 c 0.112698,0 0.225395,0.025611 0.322725,0.081961 0.33297,0.1792918 0.466157,0.5891004 0.297112,0.9271925 -0.09733,0.1844144 -3.304084,6.2751973 -3.319452,6.3059333 -0.440544,0.845231 -0.112697,1.88512 0.732534,2.320542 0.49177,0.25613 1.08087,0.261254 1.577763,0.0051 l 0.01024,-0.0051 c 0.06659,-0.03073 0.128065,-0.07171 0.184413,-0.112697 l 0.01537,-0.01024 c 0.02049,-0.01537 0.0461,-0.03586 0.06659,-0.05122 l 0.02049,-0.01537 c 0.02561,-0.02049 0.05123,-0.04098 0.07684,-0.06659 0.01025,-0.01024 0.02049,-0.02049 0.03073,-0.03073 l 0.04098,-0.04098 0.04098,-0.04611 0.01537,-0.02049 c 0.09221,-0.102452 0.169046,-0.215149 0.23564,-0.338092 0.02049,-0.04098 1.019398,-1.936346 1.936346,-3.678033 l 1.15771,-2.192478 c 0.614714,0.589101 0.768391,1.516293 0.373951,2.27444 z"
     id="path10"
     style="stroke-width:0.0512261;fill:#3333ef;fill-opacity:1" />
</svg>
